# xmcd CD database file
#
# Track frame offsets:
#	150
#	13083
#	22910
#	42333
#	53075
#	64815
#	76730
#	90083
#	101863
#	118033
#	127803
#	139225
#	156868
#	163588
#
# Disc length: 2371 seconds
#
# Revision: 0
# Processed by: cddbd v1.5.2PL0 Copyright (c) Steve Scherf et al.
# Submitted via: CDex 1.51
#
DISCID=a809410e
DTITLE=Κώστας Χατζής - Θυμηθείτε μαζί μου 18 Χρόνια CD_2
DYEAR=1979
DGENRE=Έντεχνο
TTITLE0=Στάσου που πας
TTITLE1=Απουραίοι της νύχτας
TTITLE2=Και λεγόμαστε άνθρωποι
TTITLE3=Τζάκ, Ιγκόρ, Μεχμέτ, Αλμπέρτο
TTITLE4=Σα δε ντρεπόμαστε
TTITLE5=Αντιθέσεις
TTITLE6=Μια ζωή ευαισθησία
TTITLE7=Να 'χαν όλοι οι άνθρωποι μια αγάπη όπως κι εγώ
TTITLE8=Καληνύχτα Μαργαρίτα
TTITLE9=Καρδιά μου είναι
TTITLE10=Το όνειρο
TTITLE11=Ραμόνα
TTITLE12=Γαϊδαράκος
TTITLE13=Ένα παράπονο
EXTD=YEAR: 1979
EXTT0=
EXTT1=
EXTT2=
EXTT3=
EXTT4=
EXTT5=
EXTT6=
EXTT7=
EXTT8=
EXTT9=
EXTT10=
EXTT11=
EXTT12=
EXTT13=
PLAYORDER=
